<?xml version="1.0" encoding="utf-8"?>
<!-- Generator: Adobe Illustrator 21.0.0, SVG Export Plug-In . SVG Version: 6.00 Build 0)  -->
<svg version="1.1" id="Layer_1" xmlns="http://www.w3.org/2000/svg" xmlns:xlink="http://www.w3.org/1999/xlink" x="0px" y="0px"
	 viewBox="0 0 612 612" style="enable-background:new 0 0 612 612;" xml:space="preserve">
<style type="text/css">
	.st0{fill:#FF0000;}
</style>
<path id="Forma_1" class="st0" d="M378.7,306L596.9,87.8c20.1-20.1,20.1-52.6,0-72.7s-52.6-20.1-72.7,0L306,233.3L87.8,15.1
	C67.7-5,35.1-5,15,15.1s-20.1,52.6,0,72.7L233.2,306L15.1,524.2C-5,544.3-5,576.8,15,596.9s52.6,20.1,72.7,0L306,378.7l218.2,218.2
	c20.1,20.1,52.6,20.1,72.7,0s20.1-52.6,0-72.7l0,0L378.7,306z"/>
</svg>
