<?xml version="1.0" standalone="no"?>
<!DOCTYPE svg PUBLIC "-//W3C//DTD SVG 20010904//EN"
 "http://www.w3.org/TR/2001/REC-SVG-20010904/DTD/svg10.dtd">
<svg version="1.0" xmlns="http://www.w3.org/2000/svg"
 width="104.000000pt" height="104.000000pt" viewBox="0 0 104.000000 104.000000"
 preserveAspectRatio="xMidYMid meet">
<metadata>
Created by potrace 1.14, written by Peter Selinger 2001-2017
</metadata>
<g transform="translate(0.000000,104.000000) scale(0.100000,-0.100000)"
fill="#000000" stroke="none">
<path d="M463 948 c-17 -8 -23 -22 -28 -62 -6 -55 -35 -445 -35 -471 0 -12
-14 -15 -69 -15 -76 0 -98 -13 -85 -52 11 -38 248 -268 275 -268 27 0 261 230
273 268 13 39 -9 52 -85 52 -38 0 -69 3 -69 8 0 4 -9 122 -20 262 -18 234 -22
256 -41 273 -24 19 -82 22 -116 5z"/>
</g>
</svg>
